<svg width="832" height="125" viewBox="0 0 832 125" fill="none" xmlns="http://www.w3.org/2000/svg">
<g clip-path="url(#clip0_985_15922)">
<path d="M611.776 85.8338C604.002 85.8338 596.451 84.3099 589.342 81.3001C582.481 78.3954 576.318 74.2406 571.026 68.9449C565.739 63.6534 561.582 57.4863 558.68 50.6163L576.116 43.2368C578.064 47.8463 580.857 51.9886 584.412 55.5499C587.967 59.107 592.106 61.9022 596.716 63.8512C601.483 65.8676 606.547 66.8906 611.776 66.8906C617.005 66.8906 622.07 65.8676 626.836 63.8512C631.443 61.9022 635.582 59.107 639.141 55.5499C642.7 51.9886 645.489 47.8463 647.436 43.2368L664.873 50.6163C661.97 57.4821 657.818 63.6492 652.526 68.9449C647.239 74.2363 641.076 78.3954 634.211 81.3001C627.101 84.3099 619.554 85.8338 611.776 85.8338V85.8338Z" fill="#EDD237"/>
<path d="M28.2983 99.7255C14.6224 99.7255 5.10269 94.6067 0 84.512L16.3934 75.1751C18.3663 80.2224 22.4678 82.8829 28.2983 82.8829C33.6155 82.8829 36.3078 81.237 36.3078 77.9913C36.3078 74.7457 30.7255 73.0409 23.9822 71.3528C13.5665 68.4818 2.91102 63.8134 2.91102 50.9531C2.91102 44.1251 5.31303 38.922 10.2517 35.045C15.1987 31.2689 21.4582 29.3494 28.8452 29.3494C39.69 29.3494 48.9488 34.2956 54.367 42.9506L38.2008 51.6729C35.9082 47.859 32.7658 45.9268 28.8452 45.9268C24.6132 45.9268 22.4636 47.4338 22.4636 50.41C22.4636 53.7061 28.1679 55.2553 34.7808 57.0444L34.8144 57.0528C49.0793 60.1595 55.9698 67.0506 55.8646 78.1218C55.8646 85.1982 53.2186 90.6328 48.0066 94.2825C42.6557 97.8944 36.0259 99.7297 28.3025 99.7297L28.2983 99.7255Z" fill="#EDD237"/>
<path d="M95.7902 98.3617C88.0036 98.3617 82.2447 96.9936 78.6816 94.2952C73.8397 90.4982 71.4798 83.9185 71.4798 74.1859V49.4587H60.6182V31.2522H71.4798V18.1729L90.4897 12.4647V31.2522H104.473V49.4587H90.4897V74.1859C90.4897 79.7089 94.6544 80.8413 100.905 80.8413C101.949 80.8413 103.127 80.8119 104.473 80.7445V97.8944C101.347 98.2059 98.4277 98.3617 95.7859 98.3617H95.7902Z" fill="#EDD237"/>
<path d="M141.041 99.7256C133.983 99.7256 128.026 97.2798 123.331 92.4598C118.62 87.4757 116.327 80.875 116.327 72.279V31.2522H135.337V69.2986C135.337 77.3474 140.124 82.3442 147.827 82.3442C156.282 82.3442 161.132 76.9938 161.132 67.6695V31.2522H180.142V97.8271H161.132V90.0435L159.908 91.7232C156.021 97.0399 149.673 99.734 141.041 99.734V99.7256Z" fill="#EDD237"/>
<path d="M221.78 99.7256C212.938 99.7256 205.597 96.421 199.333 89.6183C193.145 82.8998 190.007 74.4638 190.007 64.5375C190.007 54.6113 193.057 46.4025 199.333 39.5914C205.681 32.7003 213.022 29.3452 221.78 29.3452C230.538 29.3452 236.937 32.052 241.497 37.394L242.691 38.7916V4.07495H261.701V97.8271H242.691V90.2792L241.497 91.6768C236.941 97.0188 230.307 99.7256 221.78 99.7256V99.7256ZM225.852 47.2739C220.888 47.2739 216.799 48.8483 213.695 51.9592C210.59 55.0659 209.013 59.2965 209.013 64.5291C209.013 69.7616 210.586 73.9965 213.695 77.099C216.799 80.2057 220.892 81.7843 225.852 81.7843C230.812 81.7843 234.905 80.2099 238.009 77.099C241.114 73.9923 242.691 69.7616 242.691 64.5291C242.691 59.2965 241.118 55.0617 238.009 51.9592C234.905 48.8525 230.812 47.2739 225.852 47.2739V47.2739Z" fill="#EDD237"/>
<path d="M308.492 99.7257C297.214 99.7257 288.397 96.4548 281.54 89.7278C274.919 83.1061 271.562 74.6238 271.562 64.5334C271.562 54.4429 274.877 46.1416 281.414 39.4652C287.997 32.7508 296.6 29.3411 306.999 29.3411C316.8 29.3411 324.679 32.6498 331.078 39.4525C337.535 46.0448 340.808 54.4808 340.808 64.5291C340.808 67.1265 340.576 69.6354 340.114 72.0012H291.501L291.83 72.9105C294.219 79.5196 299.915 82.8704 308.761 82.8704C314.243 82.8704 318.668 81.1908 321.92 77.882L337.098 86.6169C330.64 95.314 321.02 99.7172 308.492 99.7172V99.7257ZM306.864 46.0574C298.716 46.0574 293.516 49.8334 291.413 57.2844L291.169 58.1474H322.155L321.911 57.2844C319.804 49.8376 314.743 46.0574 306.868 46.0574H306.864Z" fill="#EDD237"/>
<path d="M395.045 97.8271V59.7807C395.045 51.7319 390.257 46.7351 382.555 46.7351C374.1 46.7351 369.249 52.0855 369.249 61.4098V97.8229H350.239V31.2522H369.249V39.0357L370.473 37.3561C374.36 32.0394 380.708 29.3452 389.34 29.3452C396.441 29.3452 402.352 31.7868 406.907 36.6026C411.716 41.5531 414.05 48.1537 414.05 56.7918V97.8271H395.045Z" fill="#EDD237"/>
<path d="M457.118 98.3617C449.331 98.3617 443.572 96.9936 440.009 94.2952C435.168 90.4982 432.812 83.9185 432.812 74.1859V49.4587H421.95V31.2522H432.812V18.1729L451.822 12.4647V31.2522H465.805V49.4587H451.822V74.1859C451.822 79.7089 455.986 80.8413 462.237 80.8413C463.285 80.8413 464.459 80.8119 465.805 80.7445V97.8944C462.679 98.2059 459.76 98.3617 457.118 98.3617V98.3617Z" fill="#EDD237"/>
<path d="M479.716 125V31.2522H498.73V38.8L499.921 37.4024C504.477 32.0646 511.111 29.3536 519.638 29.3536C528.165 29.3536 535.737 32.7045 542.084 39.5998C548.357 46.4152 551.406 54.5734 551.406 64.5459C551.406 74.5185 548.268 82.9082 542.084 89.6268C535.821 96.4253 528.476 99.734 519.638 99.734C510.799 99.734 504.481 97.0272 499.921 91.6853L498.73 90.2877V125.008H479.716V125ZM515.566 47.2823C510.677 47.2823 506.702 48.8104 503.421 51.9508C500.304 55.0701 498.73 59.2966 498.73 64.5333C498.73 69.7701 500.304 74.0007 503.412 77.1032C506.706 80.2604 510.682 81.7885 515.57 81.7885C520.458 81.7885 524.442 80.2562 527.588 77.1032C530.777 74.0512 532.405 69.8121 532.405 64.5333C532.405 59.2545 530.785 55.0154 527.58 51.9508C524.442 48.8104 520.504 47.2823 515.57 47.2823H515.566Z" fill="#EDD237"/>
<path d="M691.447 0H672.432V97.827H691.447V0Z" fill="#EDD237"/>
<path d="M729.058 99.7255C715.378 99.7255 705.863 94.6067 700.756 84.512L717.154 75.1751C719.122 80.2224 723.224 82.8829 729.058 82.8829C734.371 82.8829 737.068 81.237 737.068 77.9913C737.068 74.7457 731.481 73.0409 724.738 71.3528C714.327 68.4818 703.667 63.8134 703.667 50.9531C703.667 44.1251 706.069 38.922 711.012 35.045C715.963 31.2689 722.218 29.3494 729.605 29.3494C740.45 29.3494 749.709 34.2956 755.127 42.9506L738.961 51.6729C736.668 47.859 733.522 45.9268 729.605 45.9268C725.373 45.9268 723.22 47.4338 723.22 50.41C723.22 53.7061 728.928 55.2553 735.532 57.0444L735.566 57.0528C749.835 60.1595 756.721 67.0506 756.62 78.1218C756.62 85.1982 753.974 90.6328 748.767 94.2825C743.416 97.8944 736.786 99.7297 729.058 99.7297V99.7255Z" fill="#EDD237"/>
<path d="M799.684 99.7255C788.406 99.7255 779.593 96.4547 772.736 89.7277C766.115 83.106 762.758 74.6237 762.758 64.5332C762.758 54.4428 766.073 46.1415 772.61 39.465C779.194 32.7507 787.796 29.3409 798.195 29.3409C807.997 29.3409 815.876 32.6497 822.274 39.4524C828.731 46.0447 832.004 54.4807 832.004 64.529C832.004 67.1264 831.773 69.6353 831.314 72.0011H782.702L783.03 72.9104C785.419 79.5194 791.111 82.8703 799.962 82.8703C805.443 82.8703 809.869 81.1906 813.12 77.8819L828.298 86.6168C821.841 95.3139 812.22 99.7171 799.693 99.7171H799.688L799.684 99.7255ZM798.056 46.0573C789.908 46.0573 784.709 49.8333 782.605 57.2843L782.361 58.1473H813.352L813.108 57.2843C811 49.8375 805.935 46.0573 798.06 46.0573H798.056Z" fill="#EDD237"/>
</g>
<defs>
<clipPath id="clip0_985_15922">
<rect width="832" height="125" fill="white"/>
</clipPath>
</defs>
</svg>
